<svg width="294" height="136" viewBox="0 0 294 136" fill="none" xmlns="http://www.w3.org/2000/svg">
<path d="M134.917 43.7098H153.398L149.056 56.9396L142.693 71.1793L140.875 84.4091L129.261 119.554H109.972L134.917 43.7098ZM168.244 42.5989C171.947 42.5989 175.111 43.3731 177.737 44.9217C180.363 46.4029 182.349 48.591 183.695 51.4861C185.109 54.3138 185.816 57.7475 185.816 61.7871C185.816 67.0387 185.008 72.0209 183.393 76.7338C181.777 81.4467 179.521 85.621 176.626 89.2566C173.731 92.8923 170.398 95.7537 166.628 97.8409C162.925 99.8607 158.953 100.871 154.711 100.871C150.873 100.871 147.675 100.164 145.117 98.7498C142.559 97.3359 140.64 95.3498 139.361 92.7913C138.081 90.2329 137.442 87.2705 137.442 83.9041L146.531 57.3435C149.157 52.6306 152.254 48.995 155.822 46.4365C159.458 43.8781 163.598 42.5989 168.244 42.5989ZM167.638 61.0802C167.638 58.3871 167.066 56.3 165.921 54.8188C164.844 53.3376 163.127 52.597 160.771 52.597C158.616 52.597 156.596 53.3712 154.711 54.9198C152.826 56.401 151.109 58.3535 149.561 60.7772C148.079 63.1337 146.8 65.6585 145.723 68.3515C144.646 70.9773 143.804 73.4684 143.198 75.8249C142.66 78.1813 142.39 80.0665 142.39 81.4804C142.39 83.7021 142.693 85.52 143.299 86.9339C143.905 88.3477 144.814 89.3913 146.026 90.0646C147.238 90.6705 148.685 90.9735 150.369 90.9735C152.59 90.9735 154.61 90.2329 156.428 88.7517C158.246 87.2705 159.828 85.3517 161.175 82.9952C162.588 80.5714 163.767 78.013 164.709 75.3199C165.719 72.5595 166.46 69.9337 166.931 67.4426C167.402 64.8842 167.638 62.7634 167.638 61.0802Z" fill="#EFEFEF" style="fill:#EFEFEF;fill:color(display-p3 0.9373 0.9373 0.9373);fill-opacity:1;"/>
<path d="M100.852 85.9241C99.909 88.0786 98.4278 90.3341 96.408 92.6905C94.3882 95.047 91.8634 97.0331 88.8337 98.649C85.8713 100.265 82.4713 101.073 78.6336 101.073C75.1999 101.073 72.1702 100.265 69.5444 98.649C66.9187 97.0331 65.1682 94.643 64.2929 91.4786C63.3503 88.2469 63.6533 84.241 65.2018 79.4607L76.9168 43.71H96.206L83.9861 80.9756C83.4475 82.6588 83.1782 84.2073 83.1782 85.6212C83.1782 87.035 83.6158 88.1796 84.4911 89.0549C85.3663 89.8628 86.7802 90.2667 88.7327 90.2667C90.6179 90.2667 92.3347 89.6608 93.8832 88.4489C95.4318 87.237 96.812 85.5875 98.0239 83.5004C99.2357 81.3459 100.313 78.8548 101.256 76.027L111.86 43.71H131.149L112.668 99.8609H94.3882L97.7209 89.8628L100.852 85.9241Z" fill="#EFEFEF" style="fill:#EFEFEF;fill:color(display-p3 0.9373 0.9373 0.9373);fill-opacity:1;"/>
<path d="M52.4232 48.1535C52.3559 45.0564 51.9519 42.4643 51.2113 40.3772C50.4707 38.2227 49.2925 36.6069 47.6767 35.5296C46.0608 34.3851 43.94 33.8128 41.3142 33.8128C39.0924 33.7455 37.1736 34.0484 35.5578 34.7217C33.9419 35.395 32.6963 36.3712 31.8211 37.6504C30.9458 38.8623 30.5082 40.3435 30.5082 42.094C30.5082 43.7099 30.9122 45.1574 31.7201 46.4366C32.5954 47.7159 33.9419 48.9277 35.7597 50.0723C37.5776 51.1495 39.9004 52.3614 42.7281 53.708C46.9024 55.6605 50.4371 57.7476 53.3321 59.9694C56.2945 62.1912 58.55 64.615 60.0985 67.2408C61.6471 69.8665 62.4213 72.7952 62.4213 76.027C62.4213 80.4706 61.2768 84.6112 58.9876 88.4488C56.7658 92.2192 53.3658 95.2489 48.7876 97.538C44.2093 99.8271 38.4192 100.972 31.4171 100.972C25.021 100.972 19.3656 99.8945 14.4507 97.74C9.60311 95.5182 5.86645 92.3538 3.24068 88.2469C0.682249 84.0726 -0.361323 79.0903 0.109968 73.3002H19.0962C18.8269 77.1379 19.1299 80.3359 20.0052 82.8943C20.9477 85.3854 22.4289 87.2706 24.4488 88.5498C26.5359 89.7617 29.1953 90.3677 32.427 90.3677C34.9181 90.3677 36.938 89.93 38.4865 89.0548C40.1023 88.1795 41.2806 87.0686 42.0212 85.7221C42.7618 84.3082 43.1321 82.8607 43.1321 81.3795C43.1321 79.7636 42.7281 78.3161 41.9202 77.0369C41.1123 75.7576 39.7994 74.5121 37.9815 73.3002C36.231 72.021 33.9082 70.7081 31.0132 69.3616C27.1755 67.5437 23.8765 65.6249 21.1161 63.6051C18.423 61.5179 16.3358 59.1278 14.8546 56.4347C13.4408 53.7416 12.7338 50.5773 12.7338 46.9416C12.7338 41.8247 14.013 37.5158 16.5715 34.0148C19.1972 30.4464 22.6983 27.7533 27.0745 25.9355C31.5181 24.1177 36.4667 23.2087 41.9202 23.2087C47.643 23.2087 52.6252 24.084 56.8668 25.8345C61.1084 27.5177 64.4411 30.1771 66.8649 33.8128C69.2887 37.4485 70.6016 42.2287 70.8036 48.1535H52.4232Z" fill="#EFEFEF" style="fill:#EFEFEF;fill:color(display-p3 0.9373 0.9373 0.9373);fill-opacity:1;"/>
<path d="M237.893 24.9843C239.886 25.2464 241.781 25.668 243.544 26.5379C247.949 28.7119 250.712 32.1792 251.707 37.0127C251.825 37.5857 251.919 38.1702 251.947 38.7531C251.967 39.1784 252.109 39.3556 252.53 39.4305C256.279 40.0968 259.134 42.1529 261.198 45.2736C263.426 48.6424 263.794 52.3493 262.852 56.2288C262.541 57.5125 262.112 58.7517 261.549 59.9462C261.447 60.1607 261.303 60.3657 261.32 60.6567C261.606 60.6978 261.82 60.5295 262.043 60.4173C265.508 58.6794 268.776 56.6103 272.053 54.5492C275.134 52.6109 278.407 51.0473 281.977 50.2186C283.786 49.7989 285.616 49.6696 287.44 50.2268C290.53 51.1712 293.078 54.6404 293.211 57.8683C293.339 60.9787 292.03 63.4709 290.159 65.7739C288.495 67.8206 286.503 69.5085 284.329 70.9767C281.357 72.983 278.356 74.9458 275.366 76.9239C272.247 78.9869 268.847 80.5319 265.543 82.2539C262.013 84.0934 258.605 86.118 255.59 88.7454C254.227 89.9332 253.041 91.2945 251.815 92.6158C248.879 95.7785 245.99 98.9926 242.533 101.615C238.166 104.93 233.256 106.956 227.825 107.7C227.429 107.755 227.24 107.881 227.088 108.259C225.335 112.644 222.048 115.099 217.42 115.746C213.929 116.235 210.604 115.426 207.409 114.101C200.501 111.235 194.787 106.783 190.234 100.857C188.395 98.4627 186.892 95.861 186.193 92.8919C185.144 88.4314 186.36 84.6485 189.817 81.6262C190.257 81.2422 190.33 80.9291 190.142 80.3906C189.068 77.3187 188.455 74.1605 188.246 70.902C188.102 68.6629 188.358 66.4536 188.42 64.2309C188.505 61.1636 188.325 58.1317 187.601 55.1296C186.548 50.7586 184.676 46.854 181.712 43.4223C179.619 40.9995 177.363 38.72 175.376 36.2078C173.69 34.0765 172.299 31.7966 171.832 29.0451C171.142 24.9869 172.511 21.7053 175.582 19.1026C177.816 17.2091 180.483 16.3105 183.38 16.0686C188.539 15.6378 193.111 17.2675 197.35 20.061C202.204 23.2596 205.415 27.78 207.769 32.993C208.553 34.7281 209.353 36.4559 210.148 38.1859C210.23 38.3653 210.329 38.537 210.45 38.7685C211.145 37.8344 211.724 36.8856 212.447 36.0441C215.447 32.5566 219.146 30.0087 223.254 28.0228C226.319 26.5413 229.543 25.5459 232.923 25.1149C234.551 24.9073 236.195 24.8921 237.893 24.9843ZM215.221 39.4221C214.593 40.3138 213.946 41.1956 213.545 42.4057C215.298 41.5651 216.914 40.8696 218.562 40.2481C218.727 40.1858 218.794 40.0361 218.882 39.8987C219.824 38.4224 220.918 37.0725 222.225 35.9007C223.217 35.011 224.337 34.3258 225.586 33.868C226.1 33.6796 226.651 33.6236 226.991 34.1939C227.323 34.7515 227.004 35.1993 226.656 35.617C226.58 35.7092 226.476 35.7796 226.384 35.8586C225.722 36.4249 225.046 36.9754 224.403 37.5622C223.978 37.9506 223.519 38.3228 223.206 38.9284C223.419 38.8946 223.554 38.8686 223.69 38.8525C224.391 38.7697 225.094 38.6032 225.797 38.8328C226.159 38.9512 226.464 39.1425 226.538 39.5552C226.61 39.9542 226.455 40.2648 226.144 40.5131C225.707 40.8628 225.189 41.0315 224.665 41.1956C218.078 43.2589 211.789 45.8716 206.782 50.8617C206.484 51.1589 206.139 51.4239 205.732 51.5753C205.394 51.7013 205.054 51.723 204.753 51.4828C204.447 51.238 204.413 50.8923 204.479 50.5406C204.548 50.178 204.732 49.8603 204.932 49.5522C205.666 48.4221 206.601 47.4693 207.549 46.5221C207.947 46.1238 208.698 45.8933 208.729 45.384C208.759 44.8997 208.253 44.3933 208.017 43.8808C206.458 40.4953 204.956 37.0832 203.344 33.7236C201.771 30.4457 199.773 27.4577 196.913 25.1281C193.108 22.0292 188.901 20.0023 183.85 20.284C182.062 20.3838 180.392 20.9074 178.895 21.9266C176.071 23.8484 175.201 26.7529 176.52 29.9031C177.121 31.3375 177.978 32.6212 178.981 33.7929C180.365 35.4081 181.836 36.9484 183.222 38.5621C184.897 40.5141 186.619 42.446 187.978 44.6345C190.678 48.9826 191.943 53.8331 192.587 58.8489C192.961 61.7696 192.745 64.718 192.569 67.649C192.41 70.2968 192.584 72.9163 193.179 75.488C194.404 80.7761 196.673 85.5726 200.153 89.7688C200.583 90.2874 200.942 90.8523 201.141 91.4997C201.378 92.2688 200.787 92.8839 200.004 92.7058C199.205 92.5243 198.574 92.0577 197.981 91.5241C196.062 89.7978 194.516 87.7839 193.305 85.507C193.156 85.2264 193.046 84.915 192.783 84.6941C192.439 84.8274 192.22 85.1002 191.993 85.3503C190.108 87.4265 189.638 89.8003 190.513 92.4551C191.503 95.4582 193.239 98.0115 195.335 100.328C199.334 104.75 204.002 108.243 209.611 110.384C211.864 111.244 214.176 111.777 216.613 111.556C219.189 111.321 221.161 110.092 222.572 107.945C222.718 107.723 222.91 107.487 222.838 107.159C222.493 107.104 222.155 107.048 221.818 106.995C219.074 106.562 216.448 105.794 214.053 104.339C213.176 103.806 212.392 103.176 211.795 102.338C211.538 101.978 211.372 101.56 211.684 101.157C211.982 100.77 212.403 100.668 212.884 100.794C213.633 100.99 214.341 101.298 215.033 101.629C218.548 103.31 222.222 104.029 226.119 103.65C229.863 103.287 233.367 102.218 236.651 100.382C240.751 98.0894 243.968 94.7739 247.134 91.4013C249.186 89.2153 251.136 86.9311 253.444 84.9976C256.633 82.3256 260.216 80.273 263.881 78.3475C268.399 75.9745 273.024 73.8055 277.359 71.0876C279.68 69.6325 281.985 68.1595 284.075 66.3893C286.021 64.7426 287.779 62.9296 288.663 60.4445C289.041 59.3814 289.137 58.2937 288.895 57.2165C288.382 54.936 286.553 53.812 284.134 54.1266C281.784 54.4321 279.624 55.2964 277.549 56.3567C273.742 58.3012 269.985 60.341 266.197 62.3214C262.551 64.2273 258.926 66.1653 255.474 68.4113C254.32 69.1622 253.186 69.947 252.004 70.6513C251.156 71.1567 250.514 71.1014 250.104 70.6408C249.713 70.2017 249.797 69.5566 250.384 68.7624C250.964 67.9784 251.633 67.2699 252.335 66.5959C254.463 64.5528 256.185 62.202 257.473 59.5611C258.807 56.824 259.579 53.9594 258.942 50.8675C258.197 47.2518 255.12 44.1797 251.634 43.5733C251.237 43.5042 251.047 43.5754 250.927 43.9827C250.674 44.8367 250.36 45.671 249.963 46.4727C248.697 49.0327 246.92 51.1943 244.838 53.1277C243.512 54.3585 242.152 55.532 240.506 56.3293C240.058 56.5464 239.608 56.6855 239.105 56.6565C238.555 56.6247 238.314 56.301 238.272 55.796C238.239 55.3893 238.411 55.0331 238.663 54.7371C239.003 54.337 239.362 53.9467 239.75 53.5937C242.686 50.9241 245.19 47.9535 246.788 44.2538C248.972 39.1927 247.156 33.9884 243.242 31.3093C240.194 29.223 236.798 28.8421 233.235 29.3419C230.012 29.794 226.974 30.8255 224.101 32.3336C220.717 34.1105 217.645 36.2945 215.221 39.4221Z" fill="#EFEFEF" style="fill:#EFEFEF;fill:color(display-p3 0.9373 0.9373 0.9373);fill-opacity:1;"/>
<path d="M227.697 79.2011C225.743 81.1556 223.557 82.7752 221.493 84.5377C219.553 86.1953 217.623 87.8642 215.691 89.532C215.122 90.0233 214.546 90.505 213.852 90.8102C213.405 91.0065 212.94 91.0688 212.544 90.7022C212.144 90.3319 212.267 89.8868 212.448 89.4648C212.747 88.7654 213.227 88.1804 213.738 87.6347C216.979 84.1722 219.973 80.4914 223.174 76.9938C223.966 76.1276 224.794 75.2887 225.746 74.5895C226.305 74.1792 226.904 73.8347 227.578 73.6582C229.073 73.267 230.229 74.4012 229.854 75.8946C229.52 77.2249 228.609 78.1901 227.697 79.2011Z" fill="#EFEFEF" style="fill:#EFEFEF;fill:color(display-p3 0.9373 0.9373 0.9373);fill-opacity:1;"/>
<path d="M212.412 78.8708C211.059 80.7451 209.853 82.6707 208.437 84.4472C208.182 84.7679 207.89 85.0471 207.529 85.2421C206.744 85.6659 206.027 85.2399 206.041 84.3491C206.049 83.7716 206.26 83.2422 206.501 82.7259C207.75 80.0428 209.268 77.4996 210.597 74.8579C211.425 73.2134 212.173 71.5233 213.224 69.9966C213.768 69.2055 214.351 68.4639 215.206 67.9793C215.794 67.6466 216.376 67.5468 216.987 67.9129C217.59 68.2748 217.83 68.8173 217.79 69.5005C217.724 70.6227 217.284 71.6224 216.73 72.5714C215.452 74.7629 213.857 76.7399 212.412 78.8708Z" fill="#EFEFEF" style="fill:#EFEFEF;fill:color(display-p3 0.9373 0.9373 0.9373);fill-opacity:1;"/>
<path d="M231.172 90.9511C228.348 92.2448 225.765 93.9048 223.002 95.2176C222.289 95.5563 221.578 95.9046 220.807 96.0952C220.265 96.229 219.738 96.209 219.383 95.7097C219.115 95.3323 219.287 94.7149 219.798 94.2508C220.971 93.1861 222.262 92.2743 223.587 91.4117C226.051 89.8084 228.403 88.0488 230.789 86.3359C231.712 85.6731 232.687 85.095 233.778 84.7368C234.186 84.6028 234.597 84.523 235.03 84.5361C236.204 84.5716 236.894 85.5444 236.555 86.6809C236.271 87.6339 235.548 88.235 234.824 88.8178C233.729 89.6999 232.472 90.3205 231.172 90.9511Z" fill="#EFEFEF" style="fill:#EFEFEF;fill:color(display-p3 0.9373 0.9373 0.9373);fill-opacity:1;"/>
</svg>
